<?xml version="1.0" standalone="no"?>
<!DOCTYPE svg PUBLIC "-//W3C//DTD SVG 20010904//EN"
 "http://www.w3.org/TR/2001/REC-SVG-20010904/DTD/svg10.dtd">
<svg version="1.0" xmlns="http://www.w3.org/2000/svg"
 width="512.000000pt" height="512.000000pt" viewBox="0 0 512.000000 512.000000"
 preserveAspectRatio="xMidYMid meet">

<g transform="translate(0.000000,512.000000) scale(0.100000,-0.100000)"
fill="#000000" stroke="none">
<path d="M4137 5099 c-47 -25 -72 -77 -85 -181 -26 -210 -186 -374 -389 -400
-43 -5 -97 -18 -120 -29 -108 -48 -108 -210 0 -258 23 -11 77 -23 119 -29 210
-26 364 -180 390 -390 14 -106 38 -156 87 -182 51 -25 91 -25 142 0 49 26 73
76 87 182 26 210 180 364 390 390 106 14 156 38 182 87 40 79 12 167 -63 200
-23 11 -77 24 -120 29 -203 26 -363 190 -389 400 -14 106 -38 156 -87 182 -50
25 -95 25 -144 -1z m147 -663 l73 -74 -73 -73 -74 -73 -74 73 -73 73 71 73
c39 41 72 74 74 74 1 1 36 -32 76 -73z"/>
<path d="M1137 4189 c-47 -25 -72 -77 -85 -181 -26 -210 -180 -364 -390 -390
-106 -14 -156 -38 -182 -87 -25 -51 -25 -91 0 -141 23 -46 81 -80 134 -80 102
0 222 -50 306 -128 l53 -48 -89 -358 c-49 -197 -92 -362 -95 -367 -3 -5 -37
-17 -75 -27 -131 -35 -245 -104 -350 -214 -78 -81 -125 -161 -166 -279 l-33
-94 -3 -385 c-3 -266 0 -403 8 -445 25 -129 114 -249 225 -306 l65 -34 0 -101
c0 -184 38 -293 134 -390 174 -174 458 -174 632 0 94 95 134 207 134 377 l0
89 1050 0 1050 0 0 -89 c0 -170 40 -282 134 -377 174 -174 458 -174 632 0 96
97 134 206 134 390 l0 101 65 34 c111 57 200 177 225 306 8 42 11 179 8 445
l-3 385 -33 94 c-41 118 -88 198 -166 279 -105 110 -219 179 -350 214 -38 10
-71 20 -74 22 -2 3 -55 208 -117 456 -74 296 -123 471 -141 507 -34 67 -114
149 -181 186 -105 57 -105 57 -994 57 -513 0 -836 4 -870 10 -193 37 -336 191
-361 388 -14 106 -38 156 -87 182 -50 25 -95 25 -144 -1z m148 -659 l70 -70
-73 -73 -72 -72 -72 72 -73 73 70 70 c38 38 72 70 75 70 3 0 37 -32 75 -70z
m2154 -238 c19 -9 44 -30 55 -45 14 -19 55 -166 122 -433 l102 -404 -138 0
-137 0 -18 48 c-67 179 -207 314 -390 373 -55 18 -93 23 -175 23 -82 0 -120
-5 -175 -23 -183 -59 -323 -194 -390 -373 l-18 -48 -587 0 -588 0 37 148 37
147 40 6 c97 13 134 63 152 201 24 193 168 351 353 387 24 5 413 9 864 10 762
1 822 0 854 -17z m-495 -746 c59 -18 117 -57 151 -102 l26 -34 -261 0 -261 0
26 34 c72 95 203 137 319 102z m1047 -446 c180 -34 325 -179 359 -359 5 -30
10 -202 10 -388 0 -315 -1 -336 -20 -373 -13 -26 -34 -47 -60 -60 -39 -20 -55
-20 -1870 -20 -1815 0 -1831 0 -1870 20 -26 13 -47 34 -60 60 -19 37 -20 58
-20 373 0 186 5 358 10 388 33 176 179 324 351 358 65 13 3103 13 3170 1z
m-2931 -1590 c0 -112 -20 -159 -80 -190 -50 -25 -90 -25 -140 0 -60 31 -80 78
-80 190 l0 90 150 0 150 0 0 -90z m3000 0 c0 -112 -20 -159 -80 -190 -50 -25
-90 -25 -140 0 -60 31 -80 78 -80 190 l0 90 150 0 150 0 0 -90z"/>
<path d="M838 1789 c-43 -22 -78 -81 -78 -131 0 -18 10 -51 23 -73 21 -38 41
-50 355 -207 240 -121 343 -168 368 -168 53 0 111 34 134 80 26 51 25 95 -3
145 -21 38 -41 50 -355 208 -360 180 -372 184 -444 146z"/>
<path d="M3538 1643 c-314 -158 -334 -170 -355 -208 -28 -50 -29 -94 -3 -145
23 -46 81 -80 134 -80 25 0 128 47 368 168 314 157 334 169 355 207 28 50 29
94 3 145 -23 46 -81 80 -134 80 -25 0 -128 -47 -368 -167z"/>
<path d="M2038 1489 c-43 -22 -78 -81 -78 -129 0 -50 35 -107 80 -130 37 -19
58 -20 370 -20 312 0 333 1 370 20 45 23 80 80 80 130 0 50 -35 107 -80 130
-37 19 -58 20 -372 20 -312 -1 -335 -2 -370 -21z"/>
</g>
</svg>
